<?xml version="1.0" encoding="UTF-8" standalone="no"?>
<!DOCTYPE svg PUBLIC "-//W3C//DTD SVG 1.1//EN"
 "http://www.w3.org/Graphics/SVG/1.1/DTD/svg11.dtd">
<!-- Generated by graphviz version 2.43.0 (0)
 -->
<!-- Title: sourcetree Pages: 1 -->
<svg width="173pt" height="188pt"
 viewBox="0.00 0.00 173.00 188.00" xmlns="http://www.w3.org/2000/svg" xmlns:xlink="http://www.w3.org/1999/xlink">
<g id="graph0" class="graph" transform="scale(1 1) rotate(0) translate(4 184)">
<title>sourcetree</title>
<polygon fill="white" stroke="transparent" points="-4,4 -4,-184 169,-184 169,4 -4,4"/>
<!-- mulle&#45;objc&#45;developer -->
<g id="node1" class="node">
<title>mulle&#45;objc&#45;developer</title>
<polygon fill="yellow" stroke="black" points="165,-180 0,-180 0,-144 165,-144 165,-180"/>
<text text-anchor="middle" x="82.5" y="-158.3" font-family="Times,serif" font-size="14.00">mulle&#45;objc&#45;developer</text>
</g>
<!-- mulle&#45;c&#45;developer -->
<g id="node2" class="node">
<title>mulle&#45;c&#45;developer</title>
<polygon fill="white" stroke="black" points="154,-108 11,-108 11,-72 154,-72 154,-108"/>
<text text-anchor="middle" x="82.5" y="-86.3" font-family="Times,serif" font-size="14.00">mulle&#45;c&#45;developer</text>
</g>
<!-- mulle&#45;objc&#45;developer&#45;&gt;mulle&#45;c&#45;developer -->
<g id="edge1" class="edge">
<title>mulle&#45;objc&#45;developer&#45;&gt;mulle&#45;c&#45;developer</title>
<path fill="none" stroke="black" d="M82.5,-143.7C82.5,-135.98 82.5,-126.71 82.5,-118.11"/>
<polygon fill="black" stroke="black" points="86,-118.1 82.5,-108.1 79,-118.1 86,-118.1"/>
</g>
<!-- mulle&#45;sde&#45;developer -->
<g id="node3" class="node">
<title>mulle&#45;sde&#45;developer</title>
<polygon fill="white" stroke="black" points="163,-36 2,-36 2,0 163,0 163,-36"/>
<text text-anchor="middle" x="82.5" y="-14.3" font-family="Times,serif" font-size="14.00">mulle&#45;sde&#45;developer</text>
</g>
<!-- mulle&#45;c&#45;developer&#45;&gt;mulle&#45;sde&#45;developer -->
<g id="edge2" class="edge">
<title>mulle&#45;c&#45;developer&#45;&gt;mulle&#45;sde&#45;developer</title>
<path fill="none" stroke="black" d="M82.5,-71.7C82.5,-63.98 82.5,-54.71 82.5,-46.11"/>
<polygon fill="black" stroke="black" points="86,-46.1 82.5,-36.1 79,-46.1 86,-46.1"/>
</g>
</g>
</svg>
